<svg id="Layer_1" data-name="Layer 1" xmlns="http://www.w3.org/2000/svg" xmlns:xlink="http://www.w3.org/1999/xlink" viewBox="0 0 257.51 229.27"><defs><style>.cls-1{fill:#fff;stroke:#000;stroke-miterlimit:10;stroke-width:8px;}.cls-2,.cls-3{fill:none;stroke-linecap:round;stroke-linejoin:round;}.cls-2{stroke-width:10px;stroke:url(#linear-gradient);}.cls-3{stroke:#29abe2;stroke-width:13px;}</style><linearGradient id="linear-gradient" x1="99.74" y1="114.63" x2="157.51" y2="114.63" gradientUnits="userSpaceOnUse"><stop offset="0" stop-color="#29abe2"/><stop offset="0.14" stop-color="#2ba4dd"/><stop offset="0.34" stop-color="#3291cf"/><stop offset="0.59" stop-color="#3c72b8"/><stop offset="0.85" stop-color="#4b4799"/><stop offset="1" stop-color="#542c85"/></linearGradient></defs><path class="cls-1" d="M200.35,31.48l52.71,91.29a19.38,19.38,0,0,1,0,19.35l-52.71,91.29a19.36,19.36,0,0,1-16.75,9.67H78.18a19.36,19.36,0,0,1-16.75-9.67L8.73,142.12a19.33,19.33,0,0,1,0-19.35l52.7-91.29a19.36,19.36,0,0,1,16.75-9.67H183.6A19.36,19.36,0,0,1,200.35,31.48Z" transform="translate(-2.13 -17.81)"/><line class="cls-2" x1="104.74" y1="171.57" x2="152.51" y2="57.7"/><polyline class="cls-3" points="85.69 172.78 52.11 114.63 85.69 56.48"/><polyline class="cls-3" points="171.83 56.48 205.4 114.63 171.83 172.78"/></svg>